<svg xmlns="http://www.w3.org/2000/svg" xmlns:xlink="http://www.w3.org/1999/xlink" width="500" zoomAndPan="magnify" viewBox="0 0 375 374.999991" height="500" preserveAspectRatio="xMidYMid meet" version="1.0"><defs><g/><clipPath id="d23038d848"><path d="M 168 124.78125 L 262.5 124.78125 L 262.5 250.03125 L 168 250.03125 Z M 168 124.78125 " clip-rule="nonzero"/></clipPath><clipPath id="402f93270e"><path d="M 112.5 125 L 198 125 L 198 250.03125 L 112.5 250.03125 Z M 112.5 125 " clip-rule="nonzero"/></clipPath></defs><g clip-path="url(#d23038d848)"><path fill="#44b7a9" d="M 262.324219 124.78125 L 211.332031 250.160156 L 180.351562 250.160156 L 194.765625 214.921875 L 168.394531 159.027344 L 168.101562 158.386719 L 199.839844 158.386719 L 209.523438 178.808594 L 231.34375 124.78125 Z M 262.324219 124.78125 " fill-opacity="1" fill-rule="nonzero"/></g><g clip-path="url(#402f93270e)"><path fill="#0ea5e9" d="M 169.441406 173.265625 L 182.628906 201.910156 L 141.320312 201.910156 L 141.320312 250.21875 L 112.675781 250.21875 L 112.675781 125.773438 L 184.378906 125.773438 L 186.304688 129.796875 L 197.914062 154.359375 L 161.101562 154.417969 L 141.320312 154.417969 L 141.320312 173.207031 Z M 169.441406 173.265625 " fill-opacity="1" fill-rule="nonzero"/></g><g fill="#44b7a9" fill-opacity="1"><g transform="translate(184.63672, 191.249987)"><g><path d="M 0.546875 -0.265625 L 0.546875 -9.03125 C 1.347656 -9.15625 2.054688 -9.21875 2.671875 -9.21875 C 3.765625 -9.21875 4.523438 -8.988281 4.953125 -8.53125 C 5.378906 -8.070312 5.59375 -7.359375 5.59375 -6.390625 C 5.59375 -5.234375 5.304688 -4.441406 4.734375 -4.015625 C 4.347656 -3.742188 3.976562 -3.578125 3.625 -3.515625 C 3.15625 -3.441406 2.628906 -3.40625 2.046875 -3.40625 L 2.046875 -0.28125 C 2.046875 -0.125 2.035156 -0.0195312 2.015625 0.03125 C 1.992188 0.132812 1.84375 0.1875 1.5625 0.1875 C 0.882812 0.1875 0.546875 0.0351562 0.546875 -0.265625 Z M 2.078125 -5.078125 C 2.109375 -5.066406 2.132812 -5.054688 2.15625 -5.046875 C 2.175781 -5.046875 2.265625 -5.046875 2.421875 -5.046875 C 2.585938 -5.046875 2.738281 -5.050781 2.875 -5.0625 C 3.007812 -5.070312 3.15625 -5.097656 3.3125 -5.140625 C 3.46875 -5.179688 3.578125 -5.253906 3.640625 -5.359375 C 3.785156 -5.597656 3.859375 -5.925781 3.859375 -6.34375 C 3.859375 -6.769531 3.796875 -7.113281 3.671875 -7.375 C 3.546875 -7.644531 3.410156 -7.78125 3.265625 -7.78125 C 2.691406 -7.78125 2.34375 -7.769531 2.21875 -7.75 C 2.101562 -7.726562 2.046875 -7.648438 2.046875 -7.515625 L 2.046875 -5.234375 C 2.046875 -5.140625 2.054688 -5.085938 2.078125 -5.078125 Z M 2.078125 -5.078125 "/></g></g></g></svg>